<?xml version="1.0" encoding="utf-8"?>
<!-- Generator: Adobe Illustrator 23.0.4, SVG Export Plug-In . SVG Version: 6.00 Build 0)  -->
<svg version="1.1" id="Layer_1" xmlns="http://www.w3.org/2000/svg" xmlns:xlink="http://www.w3.org/1999/xlink" x="0px" y="0px"
	 viewBox="0 0 337.5 87" style="enable-background:new 0 0 337.5 87;" xml:space="preserve">
<style type="text/css">
	.st0{fill:#B4D392;}
	.st1{fill:#5D5D81;}
</style>
<g>
	<path class="st0" d="M53.9,87H18.1C8.1,87,0,78.9,0,68.9V33.1C0,23.1,8.1,15,18.1,15h35.8c10,0,18.1,8.1,18.1,18.1v35.8
		C72,78.9,63.9,87,53.9,87z M18.1,22C12,22,7,27,7,33.1v35.8C7,75,12,80,18.1,80h35.8C60,80,65,75,65,68.9V33.1C65,27,60,22,53.9,22
		H18.1z"/>
	<path class="st1" d="M37.3,73.2L11.1,42.4c-1.6-1.9-1.4-4.7,0.5-6.3s4.7-1.4,6.3,0.5l19.8,23.2L94.3,1.4c1.7-1.8,4.6-1.8,6.4-0.1
		s1.8,4.6,0.1,6.4L37.3,73.2z"/>
</g>
<g>
	<g>
		<path class="st0" d="M104.7,48.9c-0.1,2.3-0.3,3.8-0.8,4.5c-0.5,0.6-1.4,1-2.8,1c-1.1,0-1.9-0.3-2.5-0.9c-0.5-0.6-0.8-1.4-0.8-2.6
			c0.1-1,0.1-1.7,0.1-2.2l0.5-15.5c0.1-1.2,0.4-2,0.9-2.5c0.6-0.5,1.4-0.8,2.6-0.8h40.7c1.2,0,2.1,0.3,2.6,0.8
			c0.6,0.5,0.9,1.4,0.9,2.5l0.5,15.5c0,0.6,0,1.1,0,1.6s0,0.7,0,0.7c0,1.1-0.3,2-0.9,2.5c-0.6,0.5-1.5,0.8-2.7,0.8s-2.1-0.3-2.6-1
			c-0.5-0.6-0.7-2.1-0.8-4.5l-0.5-12.2h-13.5v42.2h7.2h1.8c1.3,0,2.3,0.3,2.9,0.8c0.6,0.5,0.9,1.3,0.9,2.5c0,1.1-0.3,1.9-0.8,2.5
			c-0.6,0.6-1.4,0.9-2.4,0.9h-26.3c-1.1,0-1.9-0.3-2.4-0.9c-0.6-0.6-0.8-1.4-0.8-2.5c0-1.2,0.3-2,0.9-2.5s1.6-0.7,3.1-0.7h1.5h7.2
			V36.7h-13.5L104.7,48.9z"/>
		<path class="st0" d="M205.2,57.7c0,8.6-2.4,15.6-7.1,21.1c-4.8,5.5-10.8,8.2-18.2,8.2c-7.3,0-13.4-2.7-18.2-8.2s-7.1-12.5-7.1-21
			c0-8.6,2.4-15.7,7.1-21.1c4.7-5.5,10.8-8.2,18.2-8.2s13.5,2.8,18.2,8.2S205.2,49.1,205.2,57.7z M179.9,80.4c5.2,0,9.4-2,12.4-6
			s4.5-9.6,4.5-16.6c0-7.1-1.5-12.6-4.5-16.6s-7.1-6-12.4-6c-5.3,0-9.4,2-12.4,6s-4.5,9.6-4.5,16.7s1.5,12.6,4.5,16.6
			C170.5,78.3,174.6,80.4,179.9,80.4z"/>
		<path class="st1" d="M226.3,85.5h-7.4h-2.1c-1.2,0-2-0.3-2.6-0.8s-0.9-1.4-0.9-2.5c0-1.2,0.3-2.1,1-2.5c0.7-0.5,1.9-0.7,3.8-0.7
			h0.8V36.7h-0.8c-1.9,0-3.2-0.2-3.9-0.8c-0.7-0.5-1.1-1.4-1.1-2.6s0.3-2,0.9-2.6c0.6-0.5,1.5-0.8,2.7-0.8h2h7.4h10.4
			c7.8,0,14,2.5,18.6,7.5c4.6,5,6.9,11.8,6.9,20.3c0,4.2-0.7,8-2,11.6c-1.3,3.6-3.3,6.7-5.8,9.4c-2.3,2.4-5.2,4.2-8.6,5.3
			c-3.4,1.1-7.7,1.7-13,1.7c-0.6,0-1.7,0-3.2-0.1C228.2,85.5,227.1,85.5,226.3,85.5z M226.3,78.9c1,0.1,2,0.2,3,0.2s1.9,0.1,2.9,0.1
			c7.7,0,13.3-1.7,16.9-5.2c3.6-3.4,5.4-8.9,5.4-16.3s-1.8-12.8-5.4-16.2c-3.6-3.4-9.3-5.1-17.2-5.1c-1.5,0-2.6,0-3.4,0
			s-1.5,0.1-2.1,0.2L226.3,78.9L226.3,78.9z"/>
		<path class="st1" d="M320.4,57.7c0,8.6-2.4,15.6-7.1,21.1c-4.8,5.5-10.8,8.2-18.2,8.2c-7.3,0-13.4-2.7-18.2-8.2
			c-4.8-5.5-7.1-12.5-7.1-21c0-8.6,2.4-15.7,7.1-21.1c4.7-5.5,10.8-8.2,18.2-8.2c7.4,0,13.5,2.8,18.2,8.2S320.4,49.1,320.4,57.7z
			 M295.1,80.4c5.2,0,9.4-2,12.4-6s4.5-9.6,4.5-16.6c0-7.1-1.5-12.6-4.5-16.6s-7.1-6-12.4-6s-9.4,2-12.4,6s-4.5,9.6-4.5,16.7
			s1.5,12.6,4.5,16.6C285.7,78.3,289.8,80.4,295.1,80.4z"/>
	</g>
	<g>
		<circle class="st0" cx="332.3" cy="48.7" r="5.2"/>
		<circle class="st0" cx="332.3" cy="71.2" r="5.2"/>
	</g>
</g>
</svg>
